<mxfile host="app.diagrams.net" modified="2021-11-13T14:07:23.848Z" agent="5.0 (Windows NT 10.0; Win64; x64) AppleWebKit/537.36 (KHTML, like Gecko) Chrome/95.0.4638.69 Safari/537.36" etag="Phkl-ccoy1DVQ-DX8baP" version="15.7.3" type="github">
  <diagram id="Ch4oeuyyo9xlVhsUVESK" name="Page-1">
    <mxGraphModel dx="1673" dy="2065" grid="1" gridSize="10" guides="1" tooltips="1" connect="1" arrows="1" fold="1" page="1" pageScale="1" pageWidth="827" pageHeight="1169" math="0" shadow="0">
      <root>
        <mxCell id="0" />
        <mxCell id="1" parent="0" />
        <mxCell id="2kZPS_x7IQmcdGVoXef9-86" style="edgeStyle=orthogonalEdgeStyle;rounded=0;orthogonalLoop=1;jettySize=auto;html=1;exitX=0.5;exitY=0.5;exitDx=0;exitDy=0;exitPerimeter=0;entryX=0.5;entryY=1;entryDx=0;entryDy=0;" edge="1" parent="1" source="2kZPS_x7IQmcdGVoXef9-1" target="2kZPS_x7IQmcdGVoXef9-18">
          <mxGeometry relative="1" as="geometry">
            <Array as="points">
              <mxPoint x="1025" />
            </Array>
          </mxGeometry>
        </mxCell>
        <mxCell id="2kZPS_x7IQmcdGVoXef9-87" style="edgeStyle=orthogonalEdgeStyle;rounded=0;orthogonalLoop=1;jettySize=auto;html=1;exitX=0.5;exitY=0.5;exitDx=0;exitDy=0;exitPerimeter=0;" edge="1" parent="1" source="2kZPS_x7IQmcdGVoXef9-1">
          <mxGeometry relative="1" as="geometry">
            <mxPoint x="1150" as="targetPoint" />
            <Array as="points">
              <mxPoint x="1150" y="290" />
              <mxPoint x="1150" y="1" />
            </Array>
          </mxGeometry>
        </mxCell>
        <mxCell id="2kZPS_x7IQmcdGVoXef9-88" style="edgeStyle=orthogonalEdgeStyle;rounded=0;orthogonalLoop=1;jettySize=auto;html=1;exitX=1;exitY=1;exitDx=0;exitDy=0;exitPerimeter=0;" edge="1" parent="1" source="2kZPS_x7IQmcdGVoXef9-1" target="2kZPS_x7IQmcdGVoXef9-19">
          <mxGeometry relative="1" as="geometry" />
        </mxCell>
        <mxCell id="2kZPS_x7IQmcdGVoXef9-89" style="edgeStyle=orthogonalEdgeStyle;rounded=0;orthogonalLoop=1;jettySize=auto;html=1;exitX=1;exitY=1;exitDx=0;exitDy=0;exitPerimeter=0;entryX=0.5;entryY=1;entryDx=0;entryDy=0;" edge="1" parent="1" source="2kZPS_x7IQmcdGVoXef9-1" target="2kZPS_x7IQmcdGVoXef9-41">
          <mxGeometry relative="1" as="geometry" />
        </mxCell>
        <mxCell id="2kZPS_x7IQmcdGVoXef9-90" style="edgeStyle=orthogonalEdgeStyle;rounded=0;orthogonalLoop=1;jettySize=auto;html=1;exitX=1;exitY=1;exitDx=0;exitDy=0;exitPerimeter=0;entryX=0.5;entryY=1;entryDx=0;entryDy=0;" edge="1" parent="1" source="2kZPS_x7IQmcdGVoXef9-1" target="2kZPS_x7IQmcdGVoXef9-44">
          <mxGeometry relative="1" as="geometry" />
        </mxCell>
        <mxCell id="2kZPS_x7IQmcdGVoXef9-91" style="edgeStyle=orthogonalEdgeStyle;rounded=0;orthogonalLoop=1;jettySize=auto;html=1;exitX=1;exitY=1;exitDx=0;exitDy=0;exitPerimeter=0;entryX=0.5;entryY=1;entryDx=0;entryDy=0;" edge="1" parent="1" source="2kZPS_x7IQmcdGVoXef9-1" target="2kZPS_x7IQmcdGVoXef9-38">
          <mxGeometry relative="1" as="geometry" />
        </mxCell>
        <mxCell id="2kZPS_x7IQmcdGVoXef9-95" style="edgeStyle=orthogonalEdgeStyle;rounded=0;orthogonalLoop=1;jettySize=auto;html=1;exitX=0;exitY=1;exitDx=0;exitDy=0;exitPerimeter=0;entryX=0.5;entryY=0;entryDx=0;entryDy=0;" edge="1" parent="1" source="2kZPS_x7IQmcdGVoXef9-1" target="2kZPS_x7IQmcdGVoXef9-23">
          <mxGeometry relative="1" as="geometry">
            <Array as="points">
              <mxPoint x="1010" y="550" />
            </Array>
          </mxGeometry>
        </mxCell>
        <mxCell id="2kZPS_x7IQmcdGVoXef9-96" style="edgeStyle=orthogonalEdgeStyle;rounded=0;orthogonalLoop=1;jettySize=auto;html=1;exitX=0;exitY=1;exitDx=0;exitDy=0;exitPerimeter=0;entryX=0.5;entryY=0;entryDx=0;entryDy=0;" edge="1" parent="1" source="2kZPS_x7IQmcdGVoXef9-1" target="2kZPS_x7IQmcdGVoXef9-24">
          <mxGeometry relative="1" as="geometry" />
        </mxCell>
        <mxCell id="2kZPS_x7IQmcdGVoXef9-97" style="edgeStyle=orthogonalEdgeStyle;rounded=0;orthogonalLoop=1;jettySize=auto;html=1;exitX=0;exitY=1;exitDx=0;exitDy=0;exitPerimeter=0;entryX=1;entryY=0.5;entryDx=0;entryDy=0;" edge="1" parent="1" source="2kZPS_x7IQmcdGVoXef9-1" target="2kZPS_x7IQmcdGVoXef9-21">
          <mxGeometry relative="1" as="geometry" />
        </mxCell>
        <mxCell id="2kZPS_x7IQmcdGVoXef9-107" style="edgeStyle=orthogonalEdgeStyle;rounded=0;orthogonalLoop=1;jettySize=auto;html=1;exitX=0;exitY=1;exitDx=0;exitDy=0;exitPerimeter=0;entryX=1;entryY=0.5;entryDx=0;entryDy=0;" edge="1" parent="1" source="2kZPS_x7IQmcdGVoXef9-1" target="2kZPS_x7IQmcdGVoXef9-26">
          <mxGeometry relative="1" as="geometry">
            <Array as="points">
              <mxPoint x="960" y="320" />
              <mxPoint x="960" y="755" />
            </Array>
          </mxGeometry>
        </mxCell>
        <mxCell id="2kZPS_x7IQmcdGVoXef9-1" value="Agregator" style="shape=umlActor;verticalLabelPosition=bottom;verticalAlign=top;html=1;outlineConnect=0;" vertex="1" parent="1">
          <mxGeometry x="1010" y="260" width="30" height="60" as="geometry" />
        </mxCell>
        <mxCell id="2kZPS_x7IQmcdGVoXef9-79" style="edgeStyle=orthogonalEdgeStyle;rounded=0;orthogonalLoop=1;jettySize=auto;html=1;exitX=0.5;exitY=0.5;exitDx=0;exitDy=0;exitPerimeter=0;entryX=0.5;entryY=0;entryDx=0;entryDy=0;" edge="1" parent="1" source="2kZPS_x7IQmcdGVoXef9-2" target="2kZPS_x7IQmcdGVoXef9-20">
          <mxGeometry relative="1" as="geometry" />
        </mxCell>
        <mxCell id="2kZPS_x7IQmcdGVoXef9-80" style="edgeStyle=orthogonalEdgeStyle;rounded=0;orthogonalLoop=1;jettySize=auto;html=1;exitX=0.5;exitY=0.5;exitDx=0;exitDy=0;exitPerimeter=0;entryX=0.5;entryY=0;entryDx=0;entryDy=0;" edge="1" parent="1" source="2kZPS_x7IQmcdGVoXef9-2" target="2kZPS_x7IQmcdGVoXef9-18">
          <mxGeometry relative="1" as="geometry" />
        </mxCell>
        <mxCell id="2kZPS_x7IQmcdGVoXef9-2" value="Supplier" style="shape=umlActor;verticalLabelPosition=bottom;verticalAlign=top;html=1;outlineConnect=0;" vertex="1" parent="1">
          <mxGeometry x="1000" y="-170" width="30" height="60" as="geometry" />
        </mxCell>
        <mxCell id="2kZPS_x7IQmcdGVoXef9-71" style="edgeStyle=orthogonalEdgeStyle;rounded=0;orthogonalLoop=1;jettySize=auto;html=1;exitX=0.5;exitY=0.5;exitDx=0;exitDy=0;exitPerimeter=0;entryX=1;entryY=0.5;entryDx=0;entryDy=0;" edge="1" parent="1" source="2kZPS_x7IQmcdGVoXef9-3" target="2kZPS_x7IQmcdGVoXef9-36">
          <mxGeometry relative="1" as="geometry" />
        </mxCell>
        <mxCell id="2kZPS_x7IQmcdGVoXef9-73" style="edgeStyle=orthogonalEdgeStyle;rounded=0;orthogonalLoop=1;jettySize=auto;html=1;exitX=0.5;exitY=0.5;exitDx=0;exitDy=0;exitPerimeter=0;" edge="1" parent="1" source="2kZPS_x7IQmcdGVoXef9-3" target="2kZPS_x7IQmcdGVoXef9-34">
          <mxGeometry relative="1" as="geometry" />
        </mxCell>
        <mxCell id="2kZPS_x7IQmcdGVoXef9-76" style="edgeStyle=orthogonalEdgeStyle;rounded=0;orthogonalLoop=1;jettySize=auto;html=1;exitX=0.5;exitY=0.5;exitDx=0;exitDy=0;exitPerimeter=0;entryX=0.5;entryY=1;entryDx=0;entryDy=0;" edge="1" parent="1" source="2kZPS_x7IQmcdGVoXef9-3" target="2kZPS_x7IQmcdGVoXef9-35">
          <mxGeometry relative="1" as="geometry" />
        </mxCell>
        <mxCell id="2kZPS_x7IQmcdGVoXef9-104" style="edgeStyle=orthogonalEdgeStyle;rounded=0;orthogonalLoop=1;jettySize=auto;html=1;exitX=0.5;exitY=0.5;exitDx=0;exitDy=0;exitPerimeter=0;entryX=0.5;entryY=0;entryDx=0;entryDy=0;" edge="1" parent="1" source="2kZPS_x7IQmcdGVoXef9-3" target="2kZPS_x7IQmcdGVoXef9-42">
          <mxGeometry relative="1" as="geometry" />
        </mxCell>
        <mxCell id="2kZPS_x7IQmcdGVoXef9-111" style="edgeStyle=orthogonalEdgeStyle;rounded=0;orthogonalLoop=1;jettySize=auto;html=1;exitX=1;exitY=1;exitDx=0;exitDy=0;exitPerimeter=0;entryX=0;entryY=0.5;entryDx=0;entryDy=0;" edge="1" parent="1" source="2kZPS_x7IQmcdGVoXef9-3" target="2kZPS_x7IQmcdGVoXef9-27">
          <mxGeometry relative="1" as="geometry" />
        </mxCell>
        <mxCell id="2kZPS_x7IQmcdGVoXef9-3" value="Scooter" style="shape=umlActor;verticalLabelPosition=bottom;verticalAlign=top;html=1;outlineConnect=0;" vertex="1" parent="1">
          <mxGeometry x="520" y="160" width="30" height="60" as="geometry" />
        </mxCell>
        <mxCell id="2kZPS_x7IQmcdGVoXef9-74" style="edgeStyle=orthogonalEdgeStyle;rounded=0;orthogonalLoop=1;jettySize=auto;html=1;exitX=0.5;exitY=0.5;exitDx=0;exitDy=0;exitPerimeter=0;entryX=0;entryY=0.5;entryDx=0;entryDy=0;" edge="1" parent="1" source="2kZPS_x7IQmcdGVoXef9-4" target="2kZPS_x7IQmcdGVoXef9-12">
          <mxGeometry relative="1" as="geometry" />
        </mxCell>
        <mxCell id="2kZPS_x7IQmcdGVoXef9-75" style="edgeStyle=orthogonalEdgeStyle;rounded=0;orthogonalLoop=1;jettySize=auto;html=1;exitX=0.5;exitY=0.5;exitDx=0;exitDy=0;exitPerimeter=0;entryX=0;entryY=0.5;entryDx=0;entryDy=0;" edge="1" parent="1" source="2kZPS_x7IQmcdGVoXef9-4" target="2kZPS_x7IQmcdGVoXef9-13">
          <mxGeometry relative="1" as="geometry" />
        </mxCell>
        <mxCell id="2kZPS_x7IQmcdGVoXef9-99" style="edgeStyle=orthogonalEdgeStyle;rounded=0;orthogonalLoop=1;jettySize=auto;html=1;exitX=0.5;exitY=0.5;exitDx=0;exitDy=0;exitPerimeter=0;entryX=0;entryY=0.5;entryDx=0;entryDy=0;" edge="1" parent="1" source="2kZPS_x7IQmcdGVoXef9-4" target="2kZPS_x7IQmcdGVoXef9-15">
          <mxGeometry relative="1" as="geometry" />
        </mxCell>
        <mxCell id="2kZPS_x7IQmcdGVoXef9-100" style="edgeStyle=orthogonalEdgeStyle;rounded=0;orthogonalLoop=1;jettySize=auto;html=1;exitX=0.5;exitY=0.5;exitDx=0;exitDy=0;exitPerimeter=0;" edge="1" parent="1" source="2kZPS_x7IQmcdGVoXef9-4" target="2kZPS_x7IQmcdGVoXef9-31">
          <mxGeometry relative="1" as="geometry" />
        </mxCell>
        <mxCell id="2kZPS_x7IQmcdGVoXef9-101" style="edgeStyle=orthogonalEdgeStyle;rounded=0;orthogonalLoop=1;jettySize=auto;html=1;exitX=0.5;exitY=0.5;exitDx=0;exitDy=0;exitPerimeter=0;entryX=0;entryY=0.5;entryDx=0;entryDy=0;" edge="1" parent="1" source="2kZPS_x7IQmcdGVoXef9-4" target="2kZPS_x7IQmcdGVoXef9-16">
          <mxGeometry relative="1" as="geometry" />
        </mxCell>
        <mxCell id="2kZPS_x7IQmcdGVoXef9-102" style="edgeStyle=orthogonalEdgeStyle;rounded=0;orthogonalLoop=1;jettySize=auto;html=1;exitX=0.5;exitY=0.5;exitDx=0;exitDy=0;exitPerimeter=0;entryX=0.009;entryY=0.676;entryDx=0;entryDy=0;entryPerimeter=0;" edge="1" parent="1" source="2kZPS_x7IQmcdGVoXef9-4" target="2kZPS_x7IQmcdGVoXef9-17">
          <mxGeometry relative="1" as="geometry">
            <Array as="points">
              <mxPoint x="140" y="380" />
              <mxPoint x="140" y="554" />
            </Array>
          </mxGeometry>
        </mxCell>
        <mxCell id="2kZPS_x7IQmcdGVoXef9-4" value="Сustomer&lt;br&gt;" style="shape=umlActor;verticalLabelPosition=bottom;verticalAlign=top;html=1;outlineConnect=0;" vertex="1" parent="1">
          <mxGeometry x="40" y="350" width="30" height="60" as="geometry" />
        </mxCell>
        <mxCell id="2kZPS_x7IQmcdGVoXef9-5" value="Station" style="shape=umlActor;verticalLabelPosition=bottom;verticalAlign=top;html=1;outlineConnect=0;" vertex="1" parent="1">
          <mxGeometry x="1280" y="720" width="30" height="60" as="geometry" />
        </mxCell>
        <mxCell id="2kZPS_x7IQmcdGVoXef9-12" value="берет в аренду" style="ellipse;whiteSpace=wrap;html=1;" vertex="1" parent="1">
          <mxGeometry x="220" y="160" width="120" height="50" as="geometry" />
        </mxCell>
        <mxCell id="2kZPS_x7IQmcdGVoXef9-13" value="возврат транспорта" style="ellipse;whiteSpace=wrap;html=1;" vertex="1" parent="1">
          <mxGeometry x="220" y="220" width="120" height="50" as="geometry" />
        </mxCell>
        <mxCell id="2kZPS_x7IQmcdGVoXef9-14" value="регистрация" style="ellipse;whiteSpace=wrap;html=1;" vertex="1" parent="1">
          <mxGeometry x="220" y="280" width="120" height="50" as="geometry" />
        </mxCell>
        <mxCell id="2kZPS_x7IQmcdGVoXef9-15" value="оплата&lt;br&gt;" style="ellipse;whiteSpace=wrap;html=1;" vertex="1" parent="1">
          <mxGeometry x="220" y="460" width="120" height="50" as="geometry" />
        </mxCell>
        <mxCell id="2kZPS_x7IQmcdGVoXef9-16" value="выбор услуги" style="ellipse;whiteSpace=wrap;html=1;" vertex="1" parent="1">
          <mxGeometry x="220" y="340" width="120" height="50" as="geometry" />
        </mxCell>
        <mxCell id="2kZPS_x7IQmcdGVoXef9-17" value="подтверждает соглашение" style="ellipse;whiteSpace=wrap;html=1;" vertex="1" parent="1">
          <mxGeometry x="220" y="520" width="120" height="50" as="geometry" />
        </mxCell>
        <mxCell id="2kZPS_x7IQmcdGVoXef9-18" value="заключение договора" style="ellipse;whiteSpace=wrap;html=1;" vertex="1" parent="1">
          <mxGeometry x="955" y="-50" width="120" height="50" as="geometry" />
        </mxCell>
        <mxCell id="2kZPS_x7IQmcdGVoXef9-82" style="edgeStyle=orthogonalEdgeStyle;rounded=0;orthogonalLoop=1;jettySize=auto;html=1;exitX=0.5;exitY=0;exitDx=0;exitDy=0;entryX=1;entryY=0.3333333333333333;entryDx=0;entryDy=0;entryPerimeter=0;" edge="1" parent="1" source="2kZPS_x7IQmcdGVoXef9-19" target="2kZPS_x7IQmcdGVoXef9-2">
          <mxGeometry relative="1" as="geometry" />
        </mxCell>
        <mxCell id="2kZPS_x7IQmcdGVoXef9-19" value="получение денег" style="ellipse;whiteSpace=wrap;html=1;" vertex="1" parent="1">
          <mxGeometry x="1220" y="-50" width="120" height="50" as="geometry" />
        </mxCell>
        <mxCell id="2kZPS_x7IQmcdGVoXef9-85" style="edgeStyle=orthogonalEdgeStyle;rounded=0;orthogonalLoop=1;jettySize=auto;html=1;exitX=0.5;exitY=1;exitDx=0;exitDy=0;entryX=0.5;entryY=0.5;entryDx=0;entryDy=0;entryPerimeter=0;" edge="1" parent="1" source="2kZPS_x7IQmcdGVoXef9-20" target="2kZPS_x7IQmcdGVoXef9-1">
          <mxGeometry relative="1" as="geometry">
            <Array as="points">
              <mxPoint x="890" />
              <mxPoint x="890" y="290" />
            </Array>
          </mxGeometry>
        </mxCell>
        <mxCell id="2kZPS_x7IQmcdGVoXef9-20" value="предоставляет самокаты" style="ellipse;whiteSpace=wrap;html=1;" vertex="1" parent="1">
          <mxGeometry x="827" y="-50" width="120" height="50" as="geometry" />
        </mxCell>
        <mxCell id="2kZPS_x7IQmcdGVoXef9-98" style="edgeStyle=orthogonalEdgeStyle;rounded=0;orthogonalLoop=1;jettySize=auto;html=1;exitX=0;exitY=0.5;exitDx=0;exitDy=0;" edge="1" parent="1" source="2kZPS_x7IQmcdGVoXef9-21" target="2kZPS_x7IQmcdGVoXef9-4">
          <mxGeometry relative="1" as="geometry">
            <Array as="points">
              <mxPoint x="730" y="375" />
              <mxPoint x="730" y="600" />
              <mxPoint x="55" y="600" />
            </Array>
          </mxGeometry>
        </mxCell>
        <mxCell id="2kZPS_x7IQmcdGVoXef9-21" value="предоставляет услигу аренды самокатов&lt;br&gt;" style="ellipse;whiteSpace=wrap;html=1;" vertex="1" parent="1">
          <mxGeometry x="770" y="350" width="120" height="50" as="geometry" />
        </mxCell>
        <mxCell id="2kZPS_x7IQmcdGVoXef9-22" value="сбор комиссии" style="ellipse;whiteSpace=wrap;html=1;" vertex="1" parent="1">
          <mxGeometry x="770" y="670" width="120" height="50" as="geometry" />
        </mxCell>
        <mxCell id="2kZPS_x7IQmcdGVoXef9-108" style="edgeStyle=orthogonalEdgeStyle;rounded=0;orthogonalLoop=1;jettySize=auto;html=1;exitX=0;exitY=0.5;exitDx=0;exitDy=0;entryX=0.5;entryY=0.5;entryDx=0;entryDy=0;entryPerimeter=0;" edge="1" parent="1" source="2kZPS_x7IQmcdGVoXef9-23" target="2kZPS_x7IQmcdGVoXef9-4">
          <mxGeometry relative="1" as="geometry" />
        </mxCell>
        <mxCell id="2kZPS_x7IQmcdGVoXef9-23" value="реклама" style="ellipse;whiteSpace=wrap;html=1;" vertex="1" parent="1">
          <mxGeometry x="955" y="930" width="120" height="50" as="geometry" />
        </mxCell>
        <mxCell id="2kZPS_x7IQmcdGVoXef9-24" value="администрирование сервиса" style="ellipse;whiteSpace=wrap;html=1;" vertex="1" parent="1">
          <mxGeometry x="1241" y="410" width="120" height="50" as="geometry" />
        </mxCell>
        <mxCell id="2kZPS_x7IQmcdGVoXef9-25" value="определение места нахождения самоката" style="ellipse;whiteSpace=wrap;html=1;" vertex="1" parent="1">
          <mxGeometry x="770" y="410" width="120" height="50" as="geometry" />
        </mxCell>
        <mxCell id="2kZPS_x7IQmcdGVoXef9-26" value="обслуживание самокатов&lt;br&gt;" style="ellipse;whiteSpace=wrap;html=1;" vertex="1" parent="1">
          <mxGeometry x="770" y="730" width="120" height="50" as="geometry" />
        </mxCell>
        <mxCell id="2kZPS_x7IQmcdGVoXef9-27" value="хранит самокаты&lt;br&gt;" style="ellipse;whiteSpace=wrap;html=1;" vertex="1" parent="1">
          <mxGeometry x="1241" y="990" width="120" height="50" as="geometry" />
        </mxCell>
        <mxCell id="2kZPS_x7IQmcdGVoXef9-28" value="формирование отчета об аренде&amp;nbsp;" style="ellipse;whiteSpace=wrap;html=1;" vertex="1" parent="1">
          <mxGeometry x="770" y="480" width="120" height="50" as="geometry" />
        </mxCell>
        <mxCell id="2kZPS_x7IQmcdGVoXef9-29" value="формирование заказа клиента&lt;br&gt;" style="ellipse;whiteSpace=wrap;html=1;" vertex="1" parent="1">
          <mxGeometry x="770" y="610" width="120" height="50" as="geometry" />
        </mxCell>
        <mxCell id="2kZPS_x7IQmcdGVoXef9-31" value="оформление заказа" style="ellipse;whiteSpace=wrap;html=1;" vertex="1" parent="1">
          <mxGeometry x="220" y="400" width="120" height="50" as="geometry" />
        </mxCell>
        <mxCell id="2kZPS_x7IQmcdGVoXef9-32" value="зарядка самокатов&lt;br&gt;&lt;br&gt;" style="ellipse;whiteSpace=wrap;html=1;" vertex="1" parent="1">
          <mxGeometry x="1241" y="920" width="120" height="50" as="geometry" />
        </mxCell>
        <mxCell id="2kZPS_x7IQmcdGVoXef9-33" value="проверка наличия самокатов на станции" style="ellipse;whiteSpace=wrap;html=1;" vertex="1" parent="1">
          <mxGeometry x="1231" y="840" width="140" height="60" as="geometry" />
        </mxCell>
        <mxCell id="2kZPS_x7IQmcdGVoXef9-34" value="сбор информации о состоянии&lt;br&gt;" style="ellipse;whiteSpace=wrap;html=1;" vertex="1" parent="1">
          <mxGeometry x="650" y="130" width="120" height="50" as="geometry" />
        </mxCell>
        <mxCell id="2kZPS_x7IQmcdGVoXef9-103" style="edgeStyle=orthogonalEdgeStyle;rounded=0;orthogonalLoop=1;jettySize=auto;html=1;exitX=1;exitY=0.5;exitDx=0;exitDy=0;entryX=0.25;entryY=0.1;entryDx=0;entryDy=0;entryPerimeter=0;" edge="1" parent="1" source="2kZPS_x7IQmcdGVoXef9-35" target="2kZPS_x7IQmcdGVoXef9-1">
          <mxGeometry relative="1" as="geometry">
            <Array as="points">
              <mxPoint x="820" y="75" />
              <mxPoint x="820" y="266" />
            </Array>
          </mxGeometry>
        </mxCell>
        <mxCell id="2kZPS_x7IQmcdGVoXef9-35" value="передача своих координат&lt;br&gt;" style="ellipse;whiteSpace=wrap;html=1;" vertex="1" parent="1">
          <mxGeometry x="490" y="50" width="120" height="50" as="geometry" />
        </mxCell>
        <mxCell id="2kZPS_x7IQmcdGVoXef9-70" style="edgeStyle=orthogonalEdgeStyle;rounded=0;orthogonalLoop=1;jettySize=auto;html=1;exitX=0;exitY=0.5;exitDx=0;exitDy=0;entryX=0.5;entryY=0;entryDx=0;entryDy=0;entryPerimeter=0;" edge="1" parent="1" source="2kZPS_x7IQmcdGVoXef9-36" target="2kZPS_x7IQmcdGVoXef9-4">
          <mxGeometry relative="1" as="geometry" />
        </mxCell>
        <mxCell id="2kZPS_x7IQmcdGVoXef9-36" value="сообщает уровень заряда" style="ellipse;whiteSpace=wrap;html=1;" vertex="1" parent="1">
          <mxGeometry x="354" y="70" width="120" height="50" as="geometry" />
        </mxCell>
        <mxCell id="2kZPS_x7IQmcdGVoXef9-110" style="edgeStyle=orthogonalEdgeStyle;rounded=0;orthogonalLoop=1;jettySize=auto;html=1;exitX=1;exitY=0.5;exitDx=0;exitDy=0;entryX=1;entryY=1;entryDx=0;entryDy=0;entryPerimeter=0;" edge="1" parent="1" source="2kZPS_x7IQmcdGVoXef9-37" target="2kZPS_x7IQmcdGVoXef9-1">
          <mxGeometry relative="1" as="geometry" />
        </mxCell>
        <mxCell id="2kZPS_x7IQmcdGVoXef9-37" value="прием оплаты&lt;br&gt;" style="ellipse;whiteSpace=wrap;html=1;" vertex="1" parent="1">
          <mxGeometry x="770" y="550" width="120" height="50" as="geometry" />
        </mxCell>
        <mxCell id="2kZPS_x7IQmcdGVoXef9-92" style="edgeStyle=orthogonalEdgeStyle;rounded=0;orthogonalLoop=1;jettySize=auto;html=1;exitX=0.5;exitY=0;exitDx=0;exitDy=0;entryX=0.5;entryY=0;entryDx=0;entryDy=0;entryPerimeter=0;" edge="1" parent="1" source="2kZPS_x7IQmcdGVoXef9-38" target="2kZPS_x7IQmcdGVoXef9-2">
          <mxGeometry relative="1" as="geometry" />
        </mxCell>
        <mxCell id="2kZPS_x7IQmcdGVoXef9-38" value="выплаты поставщикам&lt;br&gt;" style="ellipse;whiteSpace=wrap;html=1;" vertex="1" parent="1">
          <mxGeometry x="1560" y="265" width="120" height="50" as="geometry" />
        </mxCell>
        <mxCell id="2kZPS_x7IQmcdGVoXef9-39" value="просмотр сведений о самокате&lt;br&gt;" style="ellipse;whiteSpace=wrap;html=1;" vertex="1" parent="1">
          <mxGeometry x="354" y="10" width="120" height="50" as="geometry" />
        </mxCell>
        <mxCell id="2kZPS_x7IQmcdGVoXef9-83" style="edgeStyle=orthogonalEdgeStyle;rounded=0;orthogonalLoop=1;jettySize=auto;html=1;exitX=0.5;exitY=0;exitDx=0;exitDy=0;entryX=1;entryY=1;entryDx=0;entryDy=0;entryPerimeter=0;" edge="1" parent="1" source="2kZPS_x7IQmcdGVoXef9-40" target="2kZPS_x7IQmcdGVoXef9-2">
          <mxGeometry relative="1" as="geometry">
            <Array as="points">
              <mxPoint x="1150" y="-110" />
            </Array>
          </mxGeometry>
        </mxCell>
        <mxCell id="2kZPS_x7IQmcdGVoXef9-40" value="получение компенцации" style="ellipse;whiteSpace=wrap;html=1;" vertex="1" parent="1">
          <mxGeometry x="1090" y="-50" width="120" height="50" as="geometry" />
        </mxCell>
        <mxCell id="2kZPS_x7IQmcdGVoXef9-94" style="edgeStyle=orthogonalEdgeStyle;rounded=0;orthogonalLoop=1;jettySize=auto;html=1;exitX=0.5;exitY=0;exitDx=0;exitDy=0;entryX=0.75;entryY=0.1;entryDx=0;entryDy=0;entryPerimeter=0;" edge="1" parent="1" source="2kZPS_x7IQmcdGVoXef9-41" target="2kZPS_x7IQmcdGVoXef9-2">
          <mxGeometry relative="1" as="geometry">
            <Array as="points">
              <mxPoint x="1340" y="-160" />
              <mxPoint x="1023" y="-160" />
            </Array>
          </mxGeometry>
        </mxCell>
        <mxCell id="2kZPS_x7IQmcdGVoXef9-41" value="выплата компенсации" style="ellipse;whiteSpace=wrap;html=1;" vertex="1" parent="1">
          <mxGeometry x="1280" y="265" width="120" height="50" as="geometry" />
        </mxCell>
        <mxCell id="2kZPS_x7IQmcdGVoXef9-105" style="edgeStyle=orthogonalEdgeStyle;rounded=0;orthogonalLoop=1;jettySize=auto;html=1;exitX=1;exitY=0.5;exitDx=0;exitDy=0;entryX=0.5;entryY=0.5;entryDx=0;entryDy=0;entryPerimeter=0;" edge="1" parent="1" source="2kZPS_x7IQmcdGVoXef9-42" target="2kZPS_x7IQmcdGVoXef9-1">
          <mxGeometry relative="1" as="geometry">
            <Array as="points">
              <mxPoint x="650" y="315" />
              <mxPoint x="650" y="290" />
            </Array>
          </mxGeometry>
        </mxCell>
        <mxCell id="2kZPS_x7IQmcdGVoXef9-106" style="edgeStyle=orthogonalEdgeStyle;rounded=0;orthogonalLoop=1;jettySize=auto;html=1;exitX=0;exitY=0.5;exitDx=0;exitDy=0;entryX=0.75;entryY=0.1;entryDx=0;entryDy=0;entryPerimeter=0;" edge="1" parent="1" source="2kZPS_x7IQmcdGVoXef9-42" target="2kZPS_x7IQmcdGVoXef9-4">
          <mxGeometry relative="1" as="geometry">
            <Array as="points">
              <mxPoint x="474" y="140" />
              <mxPoint x="63" y="140" />
            </Array>
          </mxGeometry>
        </mxCell>
        <mxCell id="2kZPS_x7IQmcdGVoXef9-42" value="передача информации о состоянии&lt;br&gt;" style="ellipse;whiteSpace=wrap;html=1;" vertex="1" parent="1">
          <mxGeometry x="474" y="290" width="120" height="50" as="geometry" />
        </mxCell>
        <mxCell id="2kZPS_x7IQmcdGVoXef9-93" style="edgeStyle=orthogonalEdgeStyle;rounded=0;orthogonalLoop=1;jettySize=auto;html=1;exitX=0.5;exitY=0;exitDx=0;exitDy=0;entryX=0.75;entryY=0.1;entryDx=0;entryDy=0;entryPerimeter=0;" edge="1" parent="1" source="2kZPS_x7IQmcdGVoXef9-44" target="2kZPS_x7IQmcdGVoXef9-2">
          <mxGeometry relative="1" as="geometry">
            <Array as="points">
              <mxPoint x="1480" y="-140" />
              <mxPoint x="1023" y="-140" />
            </Array>
          </mxGeometry>
        </mxCell>
        <mxCell id="2kZPS_x7IQmcdGVoXef9-44" value="формирование договора поставщика" style="ellipse;whiteSpace=wrap;html=1;" vertex="1" parent="1">
          <mxGeometry x="1420" y="265" width="120" height="50" as="geometry" />
        </mxCell>
      </root>
    </mxGraphModel>
  </diagram>
</mxfile>
